<?xml version="1.0" encoding="UTF-8" standalone="no"?>
<svg
   xmlns:dc="http://purl.org/dc/elements/1.1/"
   xmlns:cc="http://creativecommons.org/ns#"
   xmlns:rdf="http://www.w3.org/1999/02/22-rdf-syntax-ns#"
   xmlns:svg="http://www.w3.org/2000/svg"
   xmlns="http://www.w3.org/2000/svg"
   xmlns:sodipodi="http://sodipodi.sourceforge.net/DTD/sodipodi-0.dtd"
   xmlns:inkscape="http://www.inkscape.org/namespaces/inkscape"
   height="76.648354"
   width="101.91386"
   inkscape:version="1.0 (1.0+r73+1)"
   sodipodi:docname="vir1.svg"
   id="svg10"
   version="1.1"
   y="0px"
   x="0px"
   viewBox="0 0 101.91386 76.648354">
  <metadata
     id="metadata16">
    <rdf:RDF>
      <cc:Work
         rdf:about="">
        <dc:format>image/svg+xml</dc:format>
        <dc:type
           rdf:resource="http://purl.org/dc/dcmitype/StillImage" />
        <dc:title>Artboard 19</dc:title>
      </cc:Work>
    </rdf:RDF>
  </metadata>
  <defs
     id="defs14" />
  <sodipodi:namedview
     fit-margin-bottom="0"
     fit-margin-right="0"
     fit-margin-left="0"
     fit-margin-top="0"
     inkscape:current-layer="svg10"
     inkscape:window-maximized="0"
     inkscape:window-y="34"
     inkscape:window-x="0"
     inkscape:cy="51.301072"
     inkscape:cx="52.683328"
     inkscape:zoom="3.3875"
     showgrid="false"
     id="namedview12"
     inkscape:window-height="831"
     inkscape:window-width="1477"
     inkscape:pageshadow="2"
     inkscape:pageopacity="0"
     guidetolerance="10"
     gridtolerance="10"
     objecttolerance="10"
     borderopacity="1"
     bordercolor="#666666"
     pagecolor="#ffffff"
     inkscape:document-rotation="0" />
  <title
     id="title2">Artboard 19</title>
  <path
     id="path4"
     d="m 73.914293,28.028188 a 6.0066,6.0066 0 0 0 -6,6 c 0,0.103 0.0254,0.1992 0.0305,0.301 l -8.2651,1.3775 a 17.8854,17.8854 0 0 0 -6.709,-11.7757 l 4.7734,-8.24 a 7.8862,7.8862 0 0 0 2.1702,0.3372 8.0141,8.0141 0 1 0 -5.6367,-2.3313 l -4.698,8.11 a 17.3534,17.3534 0 0 0 -16.1763,0.4595 l -6.4031,-9.0916 a 5.9427,5.9427 0 0 0 0.9141,-3.1466 6,6 0 1 0 -6,6 5.9292,5.9292 0 0 0 1.9507,-0.353 l 6.2475,8.8711 a 17.8609,17.8609 0 0 0 -6.0241,11.7588 l -8.5508,1.4252 a 7.9467,7.9467 0 1 0 0.1775,4.0252 l 8.4338,-1.4058 a 17.92,17.92 0 0 0 9.4668,13.5559 l -6.5466,10.2393 a 5.9975,5.9975 0 1 0 4.8452,5.8833 5.9434,5.9434 0 0 0 -1.4158,-3.8245 l 6.9148,-10.8147 a 17.1048,17.1048 0 0 0 13.8372,-2.0471 l 6.8078,9.2763 a 8.3112,8.3112 0 1 0 3.38,-2.1582 l -7.004,-9.5431 a 17.8991,17.8991 0 0 0 5.3056,-11.1656 l 9.8076,-1.6347 a 5.9924,5.9924 0 1 0 4.3668,-10.0884 z" />
</svg>
