<svg xmlns="http://www.w3.org/2000/svg" xmlns:svg="http://www.w3.org/2000/svg" id="svg10" width="100.914" height="76.648" x="0" y="0" version="1.1" viewBox="0 0 100.914 76.648"><metadata id="metadata16"/><title id="title2">Artboard 9</title><path id="path4" d="m 73.914293,28.028188 a 6.0066,6.0066 0 0 0 -6,6 c 0,0.103 0.0254,0.1992 0.0305,0.301 l -8.2651,1.3775 a 17.8854,17.8854 0 0 0 -6.709,-11.7757 l 4.7734,-8.24 a 7.8862,7.8862 0 0 0 2.1702,0.3372 8.0141,8.0141 0 1 0 -5.6367,-2.3313 l -4.698,8.11 a 17.3534,17.3534 0 0 0 -16.1763,0.4595 l -6.4031,-9.0916 a 5.9427,5.9427 0 0 0 0.9141,-3.1466 6,6 0 1 0 -6,6 5.9292,5.9292 0 0 0 1.9507,-0.353 l 6.2475,8.8711 a 17.8609,17.8609 0 0 0 -6.0241,11.7588 l -8.5508,1.4252 a 7.9467,7.9467 0 1 0 0.1775,4.0252 l 8.4338,-1.4058 a 17.92,17.92 0 0 0 9.4668,13.5559 l -6.5466,10.2393 a 5.9975,5.9975 0 1 0 4.8452,5.8833 5.9434,5.9434 0 0 0 -1.4158,-3.8245 l 6.9148,-10.8147 a 17.1048,17.1048 0 0 0 13.8372,-2.0471 l 6.8078,9.2763 a 8.3112,8.3112 0 1 0 3.38,-2.1582 l -7.004,-9.5431 a 17.8991,17.8991 0 0 0 5.3056,-11.1656 l 9.8076,-1.6347 a 5.9924,5.9924 0 1 0 4.3668,-10.0884 z m -14,-24.0000004 a 4,4 0 1 1 -4,4 4.004,4.004 0 0 1 4,-4 z m -40,6.0000004 a 2,2 0 1 1 3.4163,1.4092 l -0.0022,10e-4 -0.0078,0.0083 a 1.9974,1.9974 0 0 1 -3.4063,-1.4185 z m 6,62 a 2,2 0 1 1 2,-2 2.0026,2.0026 0 0 1 -2,2 z m 42,-4 a 4,4 0 1 1 -4,-4 4.004,4.004 0 0 1 4,4 z m -59.9999997,-24 a 4,4 0 1 1 3.9999997,-4 4.004,4.004 0 0 1 -3.9999997,4 z m 33.9999997,8 a 14,14 0 1 1 14,-14 14.017,14.017 0 0 1 -14,14 z m 32,-16 a 2,2 0 1 1 2,-2 2.0026,2.0026 0 0 1 -2,2 z"/></svg>